<?xml version="1.0" encoding="UTF-8"?>
<svg width="128" height="128" viewBox="0 0 128 128" xmlns="http://www.w3.org/2000/svg">
    <!-- Background -->
    <rect width="128" height="128" rx="16" fill="#25D366"/>
    <!-- WhatsApp Phone Icon -->
    <path d="M64 20C40.804 20 22 38.804 22 62c0 7.938 2.254 15.348 6.148 21.662L22 108l25.098-5.992C53.04 105.738 58.386 107 64 107c23.196 0 42-18.804 42-42S87.196 20 64 20zm0 80c-6.058 0-11.926-1.414-17.16-4.072l-12.84 3.072 3.16-11.576C33.56 81.556 32 76.392 32 71c0-17.674 14.326-32 32-32s32 14.326 32 32-14.326 32-32 32z" fill="white"/>
    <!-- Phone Handset -->
    <path d="M82.5 71.94c-.972-.486-5.748-2.834-6.64-3.158-.891-.324-1.54-.486-2.187.486-.648.972-2.511 3.158-3.078 3.806-.567.648-1.134.729-2.106.243-.972-.486-4.104-1.512-7.82-4.82-2.889-2.574-4.837-5.751-5.404-6.723-.567-.972-.06-1.497.426-1.981.437-.435.972-1.134 1.458-1.701.486-.567.648-.972.972-1.62.324-.648.162-1.215-.081-1.701-.243-.486-2.187-5.265-2.997-7.209-.789-1.892-1.592-1.636-2.187-1.665-.567-.027-1.215-.032-1.863-.032s-1.701.243-2.592 1.215c-.891.972-3.402 3.32-3.402 8.099 0 4.779 3.483 9.396 3.969 10.044.486.648 6.856 10.473 16.606 14.677 2.32.999 4.131 1.596 5.541 2.043 2.327.739 4.447.634 6.121.384 1.867-.279 5.748-2.348 6.559-4.617.81-2.269.81-4.212.567-4.617-.243-.405-.891-.648-1.863-1.134z" fill="white"/>
</svg> 